<svg width="679" height="994" viewBox="0 0 679 994" fill="none" xmlns="http://www.w3.org/2000/svg">
<path d="M472.7 413C570.7 413 678.6 336.2 678.6 206C678.6 75.8 574.5 0 472.7 0C377.4 0 263.1 72.7 263.1 205.8C263.1 266.4 288.1 316.8 325.5 352.7L297.3 391.4C249.6 375.5 196.7 366.9 139.8 366.9C-114.2 366.8 -282 541.7 -282 757.4C-282 973.1 -107.2 1148 139.8 1148C386.8 1148 563.4 974.9 563.4 759.2C563.4 617.5 494.9 498.6 381.5 430.1L402.9 400.6C425.4 408.7 448.9 412.9 472.7 413ZM139.3 985.8C12.9 985.8 -89.5 883.3 -89.5 757C-89.5 630.7 12.9 528.2 139.3 528.2C265.7 528.2 368.1 630.6 368.1 757C368.1 883.4 265.7 985.8 139.3 985.8ZM355.7 207C355.7 132.2 417.9 91.2 471.5 91.2C528.7 91.2 587.3 136 587.3 207C587.3 278 526.6 323.4 471.5 323.4C416.4 323.4 355.7 277.7 355.7 207Z" fill="#C9C9C9"/>
</svg>
