<svg width="136" height="28" viewBox="0 0 136 28" fill="none" xmlns="http://www.w3.org/2000/svg">
<path fill-rule="evenodd" clip-rule="evenodd" d="M53.361 22.4V23.2485H51.1588V28H49.973V23.2485H47.7708V22.4H53.361ZM60.5266 22.4V23.2485H56.6135V24.7588H60.1201V25.6073H56.6135V27.1515H60.6452V28H55.3938V22.4H60.5266ZM103.842 22.4V27.1515H106.891V28H102.656V22.4H103.842ZM74.8748 22.4V23.2485H72.6726V28H71.5037V23.2485H69.3015V22.4H74.8748ZM112.261 22.4L115.361 28H114.091L113.413 26.7273H109.839L109.161 28H107.908L111.042 22.4H112.261ZM128.016 22.4C128.473 22.4 128.913 22.4509 129.354 22.5527C129.794 22.6546 130.167 22.7903 130.506 22.977L130.015 23.7915C129.642 23.6218 129.286 23.4861 128.913 23.4012C128.541 23.3164 128.219 23.2655 127.931 23.2655C127.575 23.2655 127.287 23.3164 127.084 23.4182C126.881 23.52 126.779 23.6558 126.779 23.8424C126.779 24.0121 126.847 24.1479 126.982 24.2497C127.118 24.3515 127.287 24.4533 127.49 24.5212C127.694 24.5891 127.982 24.657 128.354 24.7418C128.829 24.8606 129.218 24.9624 129.523 25.0642C129.828 25.1661 130.082 25.3358 130.302 25.5394C130.523 25.76 130.624 26.0315 130.624 26.3709C130.624 26.6933 130.506 26.9818 130.286 27.2194C130.065 27.457 129.743 27.6436 129.337 27.7794C128.93 27.9152 128.473 27.983 127.948 27.983C127.406 27.983 126.881 27.8982 126.372 27.7455C125.864 27.5927 125.424 27.3721 125.034 27.1006L125.559 26.303C125.915 26.5576 126.322 26.7612 126.745 26.897C127.169 27.0327 127.575 27.1006 127.965 27.1006C128.388 27.1006 128.71 27.0497 128.947 26.9309C129.184 26.8121 129.303 26.6424 129.303 26.4388C129.303 26.2691 129.235 26.1333 129.1 26.0145C128.964 25.8958 128.795 25.8109 128.575 25.76C128.371 25.6921 128.083 25.6242 127.711 25.5394C127.219 25.4206 126.83 25.3188 126.542 25.217C126.254 25.1151 126 24.9624 125.78 24.7588C125.559 24.5552 125.458 24.2836 125.458 23.9442C125.458 23.6388 125.559 23.3673 125.78 23.1297C126 22.8921 126.305 22.7224 126.694 22.5867C127.067 22.4679 127.507 22.4 128.016 22.4ZM82.4809 22.4L86.2415 26.4218V22.4H87.4104V28H86.2415L82.4978 23.9782V28H81.312V22.4H82.4809ZM93.5257 22.4C94.017 22.4 94.5083 22.4679 94.9826 22.6036C95.4569 22.7394 95.8635 22.9261 96.2192 23.1636L95.5416 23.8424C95.2706 23.6388 94.9487 23.4861 94.6099 23.3673C94.2542 23.2655 93.8984 23.1976 93.5257 23.1976C93.0684 23.1976 92.6279 23.2824 92.2383 23.4521C91.8487 23.6218 91.5438 23.8594 91.3066 24.1649C91.0864 24.4703 90.9678 24.7927 90.9678 25.1491C90.9678 25.5055 91.0864 25.8448 91.3066 26.1503C91.5268 26.4558 91.8487 26.6933 92.2383 26.863C92.6279 27.0327 93.0684 27.1176 93.5257 27.1176C93.7798 27.1176 94.0509 27.0836 94.3389 27.0158C94.6099 26.9479 94.8809 26.863 95.135 26.7273V25.183H96.1684V27.2194C95.8126 27.44 95.3891 27.6097 94.8979 27.7455C94.4066 27.8812 93.9323 27.9491 93.458 27.9491C92.7804 27.9491 92.1536 27.8303 91.5946 27.5758C91.0356 27.3212 90.5951 26.9988 90.2733 26.5576C89.9514 26.1333 89.782 25.6582 89.782 25.1321C89.782 24.6061 89.9514 24.1309 90.2733 23.7067C90.5951 23.2824 91.0525 22.943 91.6285 22.7055C92.2044 22.5188 92.8312 22.4 93.5257 22.4ZM120.393 22.4C121.104 22.4 121.68 22.5188 122.087 22.7733C122.493 23.0279 122.713 23.3673 122.713 23.8085C122.713 24.1309 122.612 24.3855 122.392 24.6061C122.171 24.8267 121.883 24.9794 121.511 25.0473C121.968 25.1151 122.341 25.2679 122.595 25.5224C122.849 25.777 122.984 26.0824 122.984 26.4727C122.984 26.9479 122.764 27.3212 122.307 27.5927C121.866 27.8642 121.24 28 120.46 28H117.394V22.4H120.393ZM65.3376 22.4C65.795 22.4 66.2354 22.4509 66.6758 22.5527C67.1163 22.6546 67.489 22.7903 67.8278 22.977L67.3365 23.7915C66.9638 23.6218 66.6081 23.4861 66.2354 23.4012C65.8627 23.3164 65.5409 23.2655 65.2529 23.2655C64.8971 23.2655 64.6092 23.3164 64.4059 23.4182C64.2026 23.52 64.101 23.6558 64.101 23.8424C64.101 24.0121 64.1687 24.1479 64.3042 24.2497C64.4398 24.3515 64.6092 24.4533 64.8124 24.5212C65.0157 24.5891 65.3037 24.657 65.6764 24.7418C66.1507 24.8606 66.5403 24.9624 66.8452 25.0642C67.1502 25.1661 67.4043 25.3358 67.6245 25.5394C67.8447 25.76 67.9463 26.0315 67.9463 26.3709C67.9463 26.6933 67.8278 26.9818 67.6075 27.2194C67.3873 27.457 67.0655 27.6436 66.6589 27.7794C66.2523 27.9152 65.795 27.983 65.2698 27.983C64.7278 27.983 64.2026 27.8982 63.6944 27.7455C63.1862 27.5927 62.7458 27.3721 62.3561 27.1006L62.8813 26.303C63.237 26.5576 63.6436 26.7612 64.0671 26.897C64.4906 27.0327 64.8971 27.1006 65.2868 27.1006C65.7103 27.1006 66.0321 27.0497 66.2693 26.9309C66.5064 26.8121 66.625 26.6424 66.625 26.4388C66.625 26.2691 66.5573 26.1333 66.4217 26.0145C66.2862 25.8958 66.1168 25.8109 65.8966 25.76C65.6933 25.6921 65.4053 25.6242 65.0327 25.5394C64.5414 25.4206 64.1518 25.3188 63.8638 25.217C63.5758 25.1151 63.3217 24.9624 63.1015 24.7588C62.8813 24.5552 62.7796 24.2836 62.7796 23.9442C62.7796 23.6388 62.8813 23.3673 63.1015 23.1297C63.3217 22.8921 63.6266 22.7224 64.0163 22.5867C64.4059 22.4509 64.8294 22.4 65.3376 22.4ZM78.2628 22.4V28H77.2464V22.4H78.2628ZM120.342 25.5564H118.563V27.1685H120.342C120.799 27.1685 121.155 27.1006 121.409 26.9479C121.663 26.8121 121.782 26.6085 121.782 26.337C121.782 26.0994 121.646 25.8958 121.392 25.76C121.155 25.6242 120.799 25.5564 120.342 25.5564ZM111.618 23.4012L110.279 25.8958H112.956L111.618 23.4012ZM120.342 23.2315H118.563V24.7079H120.342C120.714 24.7079 121.002 24.64 121.206 24.5042C121.409 24.3685 121.528 24.1818 121.528 23.9612C121.528 23.7236 121.426 23.5539 121.223 23.4182C121.002 23.2994 120.714 23.2315 120.342 23.2315ZM31.0849 0C33.1855 0 34.8964 1.71394 34.8964 3.81818C34.8964 5.92242 33.1855 7.63636 31.0849 7.63636C30.6783 7.63636 30.2887 7.56849 29.916 7.4497L29.8313 7.41576L29.4248 7.95879C30.4073 8.55273 31.1865 9.31636 31.7625 10.2836C32.4232 11.3697 32.762 12.6085 32.762 13.9661C32.762 15.3406 32.4232 16.5794 31.7625 17.6824C31.1018 18.7855 30.1701 19.6509 29.0013 20.2788C27.8155 20.9067 26.4942 21.2121 25.0204 21.2121C23.5466 21.2121 22.2253 20.9067 21.0395 20.2788C19.8537 19.6509 18.9389 18.8024 18.2783 17.6824C17.6176 16.5624 17.2788 15.3406 17.2788 13.9491C17.2788 12.5745 17.6176 11.3358 18.2783 10.2497C18.9389 9.16364 19.8537 8.31516 21.0395 7.70425C22.2253 7.09334 23.5466 6.78788 25.0204 6.78788C26.0029 6.78788 26.9007 6.92364 27.7477 7.19516L27.8663 7.22909L28.3914 6.51637C27.68 5.82061 27.2565 4.87031 27.2565 3.80122C27.2565 1.71394 28.9674 0 31.0849 0ZM78.5169 6.75394V14.9673C78.5169 15.6461 78.7202 16.1891 79.1437 16.6303C79.5672 17.0715 80.0754 17.2752 80.6852 17.2752C81.2781 17.2752 81.7694 17.0715 82.1421 16.6473C82.5147 16.24 82.7011 15.7139 82.718 15.0351V14.9673V6.75394H87.3935V14.9673C87.3935 16.2061 87.1224 17.3091 86.5634 18.2424C86.0044 19.1927 85.2251 19.9055 84.2087 20.4315C83.1923 20.9406 82.0065 21.1952 80.6513 21.1952C79.2961 21.1952 78.0934 20.9406 77.0601 20.4315C76.0267 19.9224 75.2305 19.1927 74.6546 18.2424C74.1125 17.3261 73.8245 16.2739 73.8076 15.0691V14.9503V6.73697H78.5169V6.75394ZM67.1163 6.61818C68.2004 6.61818 69.2846 6.85576 70.3688 7.33091C71.419 7.78909 72.2999 8.38303 73.0114 9.12969L73.0961 9.21454L70.4026 12.4558C69.9961 11.8788 69.4879 11.4036 68.895 11.0642C68.3021 10.7249 67.7431 10.5382 67.184 10.5382C66.337 10.5382 65.6425 10.8436 65.0835 11.4545C64.5245 12.0655 64.2534 12.8461 64.2534 13.7964C64.2534 14.4242 64.372 14.9842 64.6261 15.4764C64.8802 15.9855 65.219 16.3758 65.6764 16.6642C66.1338 16.9527 66.625 17.0885 67.184 17.0885C67.6922 17.0885 68.2513 16.9358 68.8272 16.6473C69.3863 16.3758 69.8775 16.0024 70.3179 15.5442L70.4026 15.4594L73.0961 18.3612C72.2999 19.2267 71.3513 19.9224 70.2332 20.4315C69.1152 20.9406 68.031 21.1952 66.9469 21.1952C65.5239 21.1952 64.2365 20.8727 63.1015 20.2448C61.9665 19.617 61.0687 18.7345 60.425 17.6145C59.7813 16.4945 59.4594 15.2388 59.4594 13.8473C59.4594 12.4558 59.7813 11.217 60.4419 10.1309C61.1026 9.02788 62.0173 8.17939 63.1693 7.55152C64.3381 6.92364 65.6594 6.61818 67.1163 6.61818ZM4.89566 6.78788L7.9618 14.2376L11.011 6.78788H15.9236V21.0424H11.8749V13.2364L9.4864 19.6679H6.4372L4.04866 13.2364V21.0424H0V6.78788H4.89566ZM39.1145 6.78788V17.1224H45.0604V21.0424H34.3882V6.78788H39.1145ZM57.9348 6.78788V10.3685H50.7184V12.1164H57.2572V15.697H50.7184V17.4788H58.1042V21.0424H46.0768V6.78788H57.9348ZM93.8307 6.78788V17.1224H99.7766V21.0424H89.1044V6.78788H93.8307ZM110.703 6.78788L116.547 21.0424H111.482L110.771 19.023H105.384L104.638 21.0424H99.7766L105.841 6.78788H110.703ZM123.882 6.78788C125.796 6.78788 127.287 7.22909 128.321 8.12849C129.371 9.01091 129.896 10.2667 129.896 11.8958C129.896 12.9309 129.71 13.8303 129.32 14.5939C128.93 15.3576 128.388 15.9685 127.66 16.4097L130.438 21.0424H125.17L123.476 17.343H121.731V21.0424H117.055V6.78788H123.882ZM25.0712 10.6739C24.5291 10.6739 24.0379 10.8097 23.5805 11.0982C23.1231 11.3867 22.7504 11.777 22.4794 12.2861C22.2083 12.7952 22.0728 13.3552 22.0728 13.983C22.0728 14.6109 22.2083 15.1879 22.4794 15.697C22.7504 16.2061 23.1231 16.6133 23.5805 16.9018C24.0379 17.1903 24.5461 17.343 25.0712 17.343C25.6133 17.343 26.1045 17.1903 26.545 16.9018C26.9854 16.6133 27.3412 16.2061 27.5953 15.697C27.8494 15.1879 27.9849 14.6109 27.9849 13.983C27.9849 13.3552 27.8494 12.7952 27.5953 12.2861C27.3412 11.777 26.9854 11.3867 26.545 11.0982C26.1045 10.8097 25.6133 10.6739 25.0712 10.6739ZM108.128 11.4885L106.62 15.663H109.619L108.128 11.4885ZM123.882 10.3685H121.731V13.7624H123.882C124.39 13.7624 124.78 13.6097 125.051 13.3042C125.322 12.9988 125.458 12.5745 125.458 12.0315C125.458 11.5055 125.322 11.0982 125.051 10.7927C124.78 10.5212 124.39 10.3685 123.882 10.3685ZM133.148 5.6C134.487 5.6 135.52 6.66909 135.52 7.97576C135.52 9.26545 134.47 10.3515 133.131 10.3515C131.793 10.3515 130.777 9.28242 130.777 7.97576C130.777 6.68606 131.81 5.6 133.148 5.6ZM133.148 6.29575C132.2 6.29575 131.471 7.05939 131.471 7.97576C131.471 8.89212 132.2 9.63879 133.131 9.63879C134.08 9.63879 134.809 8.87516 134.809 7.95879C134.825 7.0594 134.097 6.29575 133.148 6.29575ZM133.233 6.83879C133.809 6.83879 134.131 7.11031 134.131 7.58546C134.131 7.89091 134.012 8.12849 133.792 8.26425L134.216 8.94303H133.419L133.165 8.4H132.928V8.94303H132.234V6.83879H133.233ZM133.233 7.36485H132.945V7.87394H133.233C133.386 7.87394 133.47 7.78909 133.47 7.6194C133.47 7.4497 133.386 7.36485 133.233 7.36485ZM31.0849 1.68C29.8991 1.68 28.9335 2.64727 28.9335 3.81818C28.9335 4.98909 29.8991 5.95636 31.0849 5.95636C32.2707 5.95636 33.2363 4.98909 33.2363 3.81818C33.2363 2.64727 32.2538 1.68 31.0849 1.68Z" fill="#0047BA"/>
</svg>
